<svg xmlns="http://www.w3.org/2000/svg" width="1600" height="900" viewBox="0 0 1600 900">
  <defs>
    <linearGradient id="bg2" x1="0" y1="0" x2="1" y2="1">
      <stop offset="0" stop-color="#CCFBF1"/>
      <stop offset="0.6" stop-color="#99F6E4"/>
      <stop offset="1" stop-color="#2DD4BF"/>
    </linearGradient>
    <linearGradient id="tooth2" x1="0" y1="0" x2="0" y2="1">
      <stop offset="0" stop-color="#FFFFFF"/>
      <stop offset="1" stop-color="#CFFAFE"/>
    </linearGradient>
  </defs>

  <rect width="1600" height="900" fill="url(#bg2)"/>

  <circle cx="230" cy="200" r="160" fill="#FFFFFF" opacity="0.45"/>
  <circle cx="1450" cy="740" r="200" fill="#14B8A6" opacity="0.15"/>
  <circle cx="1340" cy="170" r="60" fill="#FFFFFF" opacity="0.6"/>
  <circle cx="260" cy="760" r="90" fill="#5EEAD4" opacity="0.25"/>

  <path d="M1120 230l6 30 30 6-30 6-6 30-6-30-30-6 30-6z" fill="#0F766E" opacity="0.35"/>
  <path d="M460 150l6 28 28 6-28 6-6 28-6-28-28-6 28-6z" fill="#0F766E" opacity="0.25"/>
  <path d="M1110 730l6 26 26 6-26 6-6 26-6-26-26-6 26-6z" fill="#FFFFFF" opacity="0.5"/>

  <g transform="translate(1020 250) scale(5)">
    <path fill-rule="evenodd" fill="url(#tooth2)"
      d="M32 9C25.5 9 20 13.5 18.5 20C17.5 24 18 27.5 19.3 30.5C20.4 33 21 35.5 21 38.5C21 46 22.8 53 27.2 54.8C29 55.5 31 54.6 31.6 52.4C32 50.9 32 48.5 32 45.5C32 44.8 32.1 44.4 32.5 44.4C32.9 44.4 33 44.8 33 45.5C33 48.5 33 50.9 33.4 52.4C34 54.6 36 55.5 37.8 54.8C42.2 53 44 46 44 38.5C44 35.5 44.6 33 45.7 30.5C47 27.5 47.5 24 46.5 20C45 13.5 38.5 9 32 9Z"/>
  </g>
</svg>